<svg width="24" height="25" viewBox="0 0 24 25" fill="none" xmlns="http://www.w3.org/2000/svg">
<path fill-rule="evenodd" clip-rule="evenodd" d="M12 0.251343C5.37258 0.251343 0 5.62393 0 12.2513C0 18.8788 5.37258 24.2513 12 24.2513C18.6274 24.2513 24 18.8788 24 12.2513C24 5.62393 18.6274 0.251343 12 0.251343ZM9.36175 5.88998C10.0442 5.85893 10.2623 5.85132 11.9987 5.85132C13.7374 5.85132 13.9548 5.85892 14.6374 5.88998C15.3188 5.92119 15.7841 6.02905 16.1921 6.18732C16.6135 6.35066 16.9695 6.56932 17.3255 6.92532C17.6815 7.28107 17.9001 7.63814 18.0641 8.05907C18.2215 8.46602 18.3295 8.93108 18.3615 9.61243C18.3921 10.2951 18.4001 10.5132 18.4001 12.2514C18.4001 13.9895 18.3921 14.2071 18.3615 14.8898C18.3295 15.5709 18.2215 16.0361 18.0641 16.4432C17.9001 16.864 17.6815 17.221 17.3255 17.5768C16.9699 17.9328 16.6133 18.152 16.1925 18.3154C15.7853 18.4737 15.3197 18.5816 14.6384 18.6128C13.9557 18.6438 13.7382 18.6514 11.9999 18.6514C10.2619 18.6514 10.0439 18.6438 9.36122 18.6128C8.68001 18.5816 8.2148 18.4737 7.8076 18.3154C7.38692 18.152 7.02985 17.9328 6.67425 17.5768C6.31837 17.221 6.0997 16.864 5.9361 16.443C5.77797 16.0361 5.6701 15.571 5.63876 14.8897C5.60783 14.207 5.6001 13.9895 5.6001 12.2514C5.6001 10.5132 5.6081 10.295 5.63863 9.61229C5.6693 8.93121 5.7773 8.46602 5.93597 8.05894C6.09997 7.63814 6.31864 7.28107 6.67465 6.92532C7.03038 6.56946 7.38746 6.35078 7.8084 6.18732C8.21533 6.02905 8.68041 5.92119 9.36175 5.88998Z" fill="#4C4B54"/>
<path fill-rule="evenodd" clip-rule="evenodd" d="M11.4265 7.00453C11.5969 7.00426 11.787 7.00453 12.0006 7.00453C13.7094 7.00453 13.912 7.01067 14.5868 7.04134C15.2108 7.06987 15.5494 7.17413 15.775 7.26173C16.0737 7.37773 16.2867 7.5164 16.5105 7.7404C16.7345 7.9644 16.8732 8.17775 16.9895 8.47641C17.0771 8.70175 17.1815 9.04042 17.2099 9.66443C17.2405 10.3391 17.2472 10.5418 17.2472 12.2498C17.2472 13.9578 17.2405 14.1605 17.2099 14.8352C17.1813 15.4592 17.0771 15.7978 16.9895 16.0232C16.8735 16.3219 16.7345 16.5345 16.5105 16.7584C16.2865 16.9824 16.0738 17.1211 15.775 17.2371C15.5497 17.3251 15.2108 17.4291 14.5868 17.4576C13.9121 17.4883 13.7094 17.4949 12.0006 17.4949C10.2917 17.4949 10.0891 17.4883 9.41446 17.4576C8.79046 17.4288 8.45179 17.3245 8.22605 17.2369C7.92738 17.1209 7.71405 16.9823 7.49005 16.7583C7.26604 16.5343 7.12738 16.3214 7.01111 16.0226C6.92351 15.7973 6.81911 15.4586 6.79071 14.8346C6.76004 14.16 6.75391 13.9573 6.75391 12.2482C6.75391 10.5391 6.76004 10.3375 6.79071 9.66283C6.81924 9.03882 6.92351 8.70015 7.01111 8.47455C7.12711 8.17587 7.26604 7.96254 7.49005 7.73854C7.71405 7.51454 7.92738 7.37587 8.22605 7.2596C8.45165 7.1716 8.79046 7.0676 9.41446 7.03893C10.0049 7.01227 10.2337 7.00426 11.4265 7.00293V7.00453ZM15.4169 8.0674C14.9929 8.0674 14.6489 8.41104 14.6489 8.83521C14.6489 9.25925 14.9929 9.60327 15.4169 9.60327C15.8409 9.60327 16.1849 9.25925 16.1849 8.83521C16.1849 8.41116 15.8409 8.06714 15.4169 8.06714V8.0674ZM8.71387 12.2517C8.71387 10.4366 10.1854 8.96504 12.0004 8.96497C13.8155 8.96497 15.2867 10.4366 15.2867 12.2517C15.2867 14.0667 13.8157 15.5377 12.0006 15.5377C10.1855 15.5377 8.71387 14.0667 8.71387 12.2517Z" fill="#4C4B54"/>
<path d="M12.0005 10.118C13.1787 10.118 14.1339 11.0731 14.1339 12.2514C14.1339 13.4295 13.1787 14.3847 12.0005 14.3847C10.8223 14.3847 9.86719 13.4295 9.86719 12.2514C9.86719 11.0731 10.8223 10.118 12.0005 10.118Z" fill="#4C4B54"/>
</svg>
