<svg xmlns="http://www.w3.org/2000/svg" viewBox="0 0 24 25" width="24" height="25">
	<style>
		tspan { white-space:pre }
		.shp0 { fill: #4c4b54 }
	</style>
	<path id="Layer" fill-rule="evenodd" class="shp0" d="M24 12.5C24 19.4 18.63 25 12 25C5.37 25 0 19.4 0 12.5C0 5.6 5.37 0 12 0C18.63 0 24 5.6 24 12.5ZM8.51 9.74L5.59 9.74L5.59 18.9L8.51 18.9L8.51 9.74ZM8.71 6.9C8.69 6.01 8.07 5.32 7.07 5.32C6.07 5.32 5.42 6.01 5.42 6.9C5.42 7.78 6.05 8.49 7.03 8.49L7.05 8.49C8.07 8.49 8.71 7.78 8.71 6.9ZM19.05 13.64C19.05 10.83 17.61 9.52 15.69 9.52C14.14 9.52 13.44 10.41 13.05 11.03L13.05 9.74L10.13 9.74C10.17 10.6 10.13 18.9 10.13 18.9L13.05 18.9L13.05 13.78C13.05 13.51 13.07 13.23 13.15 13.04C13.36 12.49 13.84 11.93 14.65 11.93C15.71 11.93 16.13 12.77 16.13 14L16.13 18.9L19.05 18.9L19.05 13.64Z" />
</svg>
