<svg xmlns="http://www.w3.org/2000/svg" viewBox="0 0 24 25" width="24" height="25">
	<style>
		tspan { white-space:pre }
		.shp0 { fill: #4c4b54 }
	</style>
	<g id="Layer">
		<g id="Layer">
			<path id="Layer" fill-rule="evenodd" class="shp0" d="M23.83 12.41C23.83 19.26 18.49 24.83 11.92 24.83C5.35 24.83 0 19.26 0 12.41C0 5.57 5.35 0 11.92 0C18.49 0 23.83 5.57 23.83 12.41ZM18.6 8.09C18.11 8.32 17.58 8.48 17.02 8.54C17.59 8.19 18.03 7.63 18.23 6.96C17.7 7.29 17.11 7.53 16.49 7.66C15.99 7.1 15.28 6.75 14.49 6.75C12.97 6.75 11.75 8.03 11.75 9.61C11.75 9.84 11.77 10.05 11.82 10.26C9.54 10.14 7.51 9.01 6.16 7.28C5.93 7.7 5.79 8.19 5.79 8.71C5.79 9.71 6.28 10.58 7.01 11.09C6.56 11.08 6.14 10.95 5.77 10.73C5.77 10.75 5.77 10.76 5.77 10.77C5.77 12.16 6.71 13.31 7.97 13.57C7.74 13.64 7.5 13.67 7.25 13.67C7.07 13.67 6.9 13.65 6.73 13.62C7.08 14.76 8.09 15.58 9.29 15.6C8.35 16.37 7.17 16.83 5.89 16.83C5.66 16.83 5.45 16.81 5.23 16.79C6.45 17.6 7.89 18.07 9.44 18.07C14.48 18.07 17.24 13.72 17.24 9.94C17.24 9.82 17.24 9.69 17.23 9.57C17.77 9.17 18.23 8.67 18.6 8.09Z" />
		</g>
	</g>
	<g id="Layer">
	</g>
	<g id="Layer">
	</g>
	<g id="Layer">
	</g>
	<g id="Layer">
	</g>
	<g id="Layer">
	</g>
	<g id="Layer">
	</g>
	<g id="Layer">
	</g>
	<g id="Layer">
	</g>
	<g id="Layer">
	</g>
	<g id="Layer">
	</g>
	<g id="Layer">
	</g>
	<g id="Layer">
	</g>
	<g id="Layer">
	</g>
	<g id="Layer">
	</g>
	<g id="Layer">
	</g>
</svg>
