<svg width="24" height="25" viewBox="0 0 24 25" fill="none" xmlns="http://www.w3.org/2000/svg">
<path fill-rule="evenodd" clip-rule="evenodd" d="M12 0.251343C5.37258 0.251343 0 5.62393 0 12.2513C0 18.8788 5.37258 24.2513 12 24.2513C18.6274 24.2513 24 18.8788 24 12.2513C24 5.62393 18.6274 0.251343 12 0.251343ZM12.9772 16.0393C12.8589 16.1641 12.6279 16.1893 12.6279 16.1893H11.8628C11.8628 16.1893 10.175 16.2888 8.68812 14.7697C7.06665 13.1124 5.63487 9.82414 5.63487 9.82414C5.63487 9.82414 5.55223 9.60844 5.64175 9.50459C5.74255 9.38722 6.01738 9.37985 6.01738 9.37985L7.84608 9.36818C7.84608 9.36818 8.01824 9.39583 8.14157 9.48494C8.24362 9.55867 8.30059 9.69571 8.30059 9.69571C8.30059 9.69571 8.59609 10.4294 8.98737 11.0931C9.75178 12.3891 10.1074 12.6724 10.3666 12.5335C10.7447 12.3314 10.6314 10.7017 10.6314 10.7017C10.6314 10.7017 10.6383 10.1105 10.4411 9.84688C10.2883 9.64287 10.0003 9.58325 9.87323 9.56667C9.76993 9.55315 9.93897 9.31841 10.1581 9.21332C10.4874 9.05539 11.0684 9.04617 11.7551 9.05293C12.2904 9.05846 12.4444 9.09103 12.6535 9.14081C13.1388 9.25575 13.1237 9.62415 13.091 10.4192C13.0812 10.657 13.0698 10.9329 13.0698 11.2517C13.0698 11.3233 13.0677 11.3996 13.0655 11.4782C13.0542 11.8855 13.0412 12.3519 13.3146 12.5255C13.4549 12.614 13.7973 12.5385 14.6544 11.1103C15.0607 10.4331 15.365 9.63733 15.365 9.63733C15.365 9.63733 15.4319 9.49538 15.5352 9.43454C15.641 9.37248 15.7838 9.39153 15.7838 9.39153L17.7083 9.37985C17.7083 9.37985 18.2867 9.31165 18.38 9.56851C18.4783 9.83705 18.164 10.4651 17.3777 11.4938C16.6318 12.4698 16.2688 12.8292 16.3021 13.147C16.3265 13.3793 16.5624 13.5893 17.0152 14.0016C17.9604 14.863 18.2138 15.3162 18.2746 15.4251C18.2797 15.4341 18.2834 15.4408 18.2861 15.4451C18.7099 16.1352 17.8159 16.1893 17.8159 16.1893L16.1062 16.2126C16.1062 16.2126 15.7393 16.2839 15.256 15.9582C15.0028 15.7878 14.7555 15.5094 14.5198 15.2442C14.16 14.8392 13.8275 14.4651 13.5438 14.5534C13.0673 14.7021 13.0817 15.7093 13.0817 15.7093C13.0817 15.7093 13.0855 15.925 12.9772 16.0393Z" fill="#4C4B54"/>
</svg>
