<svg width="24" height="25" viewBox="0 0 24 25" fill="none" xmlns="http://www.w3.org/2000/svg">
<path fill-rule="evenodd" clip-rule="evenodd" d="M12 0.251343C5.37258 0.251343 0 5.62393 0 12.2513C0 18.8788 5.37258 24.2513 12 24.2513C18.6274 24.2513 24 18.8788 24 12.2513C24 5.62393 18.6274 0.251343 12 0.251343ZM17.0009 8.12585C17.5517 8.27699 17.9855 8.72231 18.1327 9.28781C18.4001 10.3127 18.4001 12.4512 18.4001 12.4512C18.4001 12.4512 18.4001 14.5896 18.1327 15.6146C17.9855 16.1801 17.5517 16.6254 17.0009 16.7766C16.0028 17.0512 12.0001 17.0512 12.0001 17.0512C12.0001 17.0512 7.99742 17.0512 6.99923 16.7766C6.44846 16.6254 6.01472 16.1801 5.86752 15.6146C5.6001 14.5896 5.6001 12.4512 5.6001 12.4512C5.6001 12.4512 5.6001 10.3127 5.86752 9.28781C6.01472 8.72231 6.44846 8.27699 6.99923 8.12585C7.99742 7.8512 12.0001 7.8512 12.0001 7.8512C12.0001 7.8512 16.0028 7.8512 17.0009 8.12585Z" fill="#4C4B54"/>
<path d="M10.7998 14.6513V10.6512L13.9998 12.6514L10.7998 14.6513Z" fill="#4C4B54"/>
</svg>
