<svg width="136" height="19" viewBox="0 0 136 19" fill="none" xmlns="http://www.w3.org/2000/svg">
<path d="M104.79 1.65033H99.0361V17.6703H105.081H105.371C107.115 17.5503 108.626 16.7703 109.846 15.3303C111.241 13.7703 111.939 11.9103 111.939 9.69033C111.939 7.53033 111.241 5.61033 109.846 4.05033C108.452 2.43033 106.766 1.65033 104.79 1.65033ZM110.369 9.63033C110.369 11.4303 109.846 12.8703 108.742 14.1303V14.1903C107.638 15.3903 106.359 15.9903 104.848 15.9903H100.663V3.33033H104.848C106.417 3.33033 107.696 3.93033 108.8 5.13033C109.846 6.39033 110.369 7.89033 110.369 9.63033Z" fill="#FFA800"/>
<path d="M133.966 1.65033L129.782 14.6103L125.597 1.65033H123.912L128.91 17.1303L129.084 17.6103H129.491H130.014H130.479L135.652 1.65033H133.966Z" fill="#FFA800"/>
<path d="M114.787 15.9903V17.6103H125.074L124.551 15.9903H114.787Z" fill="#FFA800"/>
<path d="M122.226 8.79034H114.787V10.4703H122.749L122.226 8.79034Z" fill="#FFA800"/>
<path d="M119.959 1.65033H114.787V3.33033H120.482L119.959 1.65033Z" fill="#FFA800"/>
<path d="M23.9452 1.53033H22.376V17.4903H23.9452V1.53033Z" fill="#1F1D2A"/>
<path d="M26.3862 3.15033H34.8717L26.3862 16.2303V17.4903H37.0221V15.8103H28.5367L36.964 2.91033L37.0221 2.73033V1.53033H26.3862V3.15033Z" fill="#1F1D2A"/>
<path d="M63.9894 7.47034C63.9894 5.85034 63.4664 4.41034 62.4202 3.27034C61.3741 2.07034 60.0954 1.47034 58.5843 1.47034H53.2373V17.4303H54.8065V13.4103H58.6424C59.1074 13.4103 59.5142 13.3503 59.9211 13.2303L62.0715 17.4303H63.8732L61.3741 12.5703C61.7809 12.3303 62.1296 11.9703 62.4783 11.6103C63.4664 10.5303 63.9894 9.09034 63.9894 7.47034ZM62.4202 7.47034C62.4202 8.67034 62.0715 9.69034 61.3159 10.5303C60.5604 11.3703 59.6886 11.7903 58.6424 11.7903H54.8065V3.15034H58.6424C59.6886 3.15034 60.5604 3.57034 61.3159 4.41034C62.0715 5.25034 62.4202 6.27034 62.4202 7.47034Z" fill="#1F1D2A"/>
<path d="M72.998 1.53033H67.2441V17.5503H73.2886L73.6954 17.4903H73.5792C75.3228 17.3703 76.8339 16.5903 78.0544 15.1503C79.4493 13.5903 80.1467 11.7303 80.1467 9.51033C80.1467 7.35033 79.4493 5.43033 78.0544 3.87033C76.6595 2.31033 74.9741 1.53033 72.998 1.53033ZM78.5775 9.51033C78.5775 11.3103 78.0544 12.7503 76.9501 14.0103V14.0703C75.8459 15.2703 74.5672 15.8703 73.0561 15.8703H68.8715V3.15033H73.0561C74.6253 3.15033 75.904 3.75033 77.0083 4.95033C78.0544 6.27033 78.5775 7.71033 78.5775 9.51033Z" fill="#1F1D2A"/>
<path d="M92.6428 11.3103C92.1197 10.3503 91.3641 9.69032 90.318 9.33033L86.4821 8.19033C85.7847 7.95033 85.2616 7.59033 84.8547 6.93033C84.6223 6.57033 84.506 6.15033 84.506 5.67033C84.506 5.43033 84.5641 5.13033 84.6223 4.89033C84.7966 4.11033 85.2035 3.51033 85.8428 3.09033C86.2496 2.79033 86.7146 2.67033 87.1214 2.61033C87.2958 2.61033 87.4701 2.55033 87.6445 2.55033C88.4582 2.55033 89.2137 2.79033 89.9693 3.21033C90.4342 3.51033 90.8992 3.93033 91.306 4.47033L91.6547 4.95033L92.9334 3.99033L92.5265 3.51033C92.0035 2.79033 91.4223 2.25033 90.7248 1.83033C89.7368 1.23033 88.6906 0.990326 87.6445 0.990326C87.412 0.990326 87.1795 0.990326 86.9471 1.05033C86.2496 1.11033 85.6103 1.35033 84.9129 1.77033C83.9248 2.43033 83.2855 3.39033 82.9949 4.59033C82.8787 5.01033 82.8787 5.43033 82.8787 5.79033C82.8787 6.57033 83.053 7.29033 83.4599 7.95033C84.0411 8.91033 84.8547 9.57032 85.959 9.93033L89.7949 11.0703C90.3761 11.2503 90.8411 11.6103 91.1317 12.2103C91.3642 12.6303 91.4223 13.0503 91.4223 13.4703C91.4223 13.7103 91.3642 13.9503 91.306 14.1903C91.1898 14.6703 91.0154 15.0303 90.6667 15.3303C89.9693 16.1103 89.1556 16.4703 88.1095 16.5903C87.9932 16.5903 87.877 16.5903 87.7026 16.5903C86.4821 16.5903 85.4941 16.2303 84.6223 15.4503C84.0992 14.9103 83.6924 14.3703 83.4599 13.8903L83.2274 13.3503L81.8325 14.1303L82.065 14.6703C82.4137 15.3903 82.8787 16.0503 83.5761 16.7703C84.7385 17.7903 86.1334 18.3303 87.7607 18.3303C87.9351 18.3303 88.0513 18.3303 88.2257 18.3303C89.4462 18.2103 90.5505 17.8503 91.4223 17.0103L91.8291 16.5903C92.2941 16.0503 92.6428 15.3903 92.8171 14.6703C92.9334 14.3103 92.9334 13.8903 92.9334 13.5303C93.1077 12.6303 92.9334 11.9703 92.6428 11.3103Z" fill="#1F1D2A"/>
<path d="M44.5777 1.65033H44.2871H44.0546H43.6477L38.4751 17.6103H40.1024L41.4392 13.4703H47.193L48.5298 17.6103H50.2153L44.9845 1.65033H44.5777ZM41.9623 11.7903L44.2871 4.65033L46.6118 11.7903H41.9623Z" fill="#1F1D2A"/>
<path d="M18.7726 1.53033L14.3555 14.5503L11.0427 4.59033H9.76402L6.39308 14.5503L2.0341 1.53033H0.348633L5.69564 17.4903H7.03239L7.20675 17.0103L10.4033 7.65033L13.7162 17.4903H14.5879H14.8204H15.0529L15.2273 17.0103L20.3999 1.53033H18.7726Z" fill="#1F1D2A"/>
</svg>
