<svg width="137" height="44" viewBox="0 0 137 44" fill="none" xmlns="http://www.w3.org/2000/svg">
<path d="M47.7104 9.86473H52.0987V13.1213C52.5655 11.7302 54.2772 9.54855 57.9185 9.54855V14.4809C54.0594 14.4809 52.1609 16.2831 52.1609 20.2986V26.7802H47.7104V9.86473Z" fill="#28282D"/>
<path d="M61.5908 5.12207C61.5908 3.63604 62.7423 2.43457 64.2051 2.40295C65.6678 2.37134 66.8505 3.57281 66.8816 5.05884C66.8816 6.54487 65.7301 7.74634 64.2673 7.77795H64.2362C62.7735 7.77795 61.6219 6.6081 61.5908 5.12207ZM62.0265 9.86472H66.477V26.7802H62.0265V9.86472Z" fill="#28282D"/>
<path d="M72.7015 21.3103V13.5008H70.2739V9.86473H72.7015V6.60811L77.1519 5.59634V9.86473H81.758V13.5008H77.1519V21.2471C77.1519 22.7015 77.8678 23.1758 78.6458 23.1758C79.3927 23.1441 80.1397 22.8912 80.7621 22.4486L82.0381 25.8C80.7932 26.6537 79.2994 27.0963 77.8055 27.0963C74.5066 27.0963 72.7015 25.1361 72.7015 21.3103Z" fill="#28282D"/>
<path d="M85.4927 5.12207C85.4927 3.63604 86.6442 2.43457 88.1069 2.40295C89.5697 2.37134 90.7523 3.57281 90.7834 5.05884C90.7834 6.54487 89.6319 7.74634 88.1692 7.77795H88.1381C86.6753 7.77795 85.4927 6.6081 85.4927 5.12207ZM85.9284 9.86472H90.3789V26.7802H85.9284V9.86472Z" fill="#28282D"/>
<path d="M93.5532 18.3066C93.5532 13.4059 97.4746 9.51694 102.423 9.51694C104.602 9.48532 106.718 10.2758 108.367 11.6669L105.66 14.8287C104.788 14.0383 103.668 13.6272 102.485 13.6905C99.9021 13.6905 98.0348 15.6191 98.0348 18.275C98.0348 20.9309 99.8088 22.8596 102.641 22.8596C103.979 22.8596 105.286 22.3853 106.282 21.4684L108.647 24.8515C106.905 26.3059 104.695 27.0963 102.423 27.0647C97.4746 27.0963 93.5532 23.2074 93.5532 18.3066Z" fill="#28282D"/>
<path d="M110.484 18.3066C110.484 13.4375 113.409 9.51694 118.015 9.51694C119.945 9.51694 121.999 10.3074 123.213 11.9199V9.86473H127.57V26.7802H123.213V24.7566C122.061 26.3691 119.945 27.128 118.015 27.128C113.409 27.0963 110.484 23.1758 110.484 18.3066ZM123.088 18.3066C123.088 15.6824 121.439 13.7221 119.136 13.7221C116.739 13.7221 114.997 15.6824 114.997 18.3066C114.997 20.9309 116.739 22.8912 119.136 22.8912C121.408 22.9228 123.088 21.0258 123.088 18.3066Z" fill="#28282D"/>
<path d="M131.771 4.52136H136.222V26.7486H131.771V4.52136Z" fill="#28282D"/>
<path d="M17.6464 26.8434H12.5735L8.9011 21.5949L5.22868 26.8118H0.155762L6.38021 18.0221L0.435862 9.61179H5.47766L8.9011 14.4493L12.3245 9.61179H17.3352L11.422 18.0221L17.6464 26.8434Z" fill="#B91E2D"/>
<path d="M0 41.8618L0.653567 40.439C1.33826 41.0397 2.17856 41.3559 3.04998 41.3559C3.73467 41.3559 4.54384 41.103 4.54384 40.5339C4.54384 39.9964 3.76579 39.8383 3.01885 39.6169C1.58723 39.2059 0.342344 38.7633 0.342344 37.2456C0.342344 35.728 1.86733 34.9375 3.20559 34.9375C4.17038 34.9375 5.10404 35.1905 5.91322 35.728L5.29078 37.1191C4.66833 36.7397 3.95252 36.55 3.20559 36.55C2.64539 36.55 2.08519 36.803 2.08519 37.214C2.08519 37.7515 2.70763 37.878 3.39232 38.0044C4.79282 38.3206 6.28669 38.8897 6.28669 40.4706C6.28669 42.2728 4.45048 42.9368 3.04998 42.9368C1.92958 43.0317 0.8403 42.6206 0 41.8618Z" fill="#28282D"/>
<path d="M22.3456 34.9692C20.1671 35.0324 18.4242 36.8662 18.4865 39.0795C18.5487 41.2927 20.3538 43.0633 22.5324 43C24.6798 42.9368 26.3915 41.1662 26.3915 38.9846C26.3915 36.7397 24.5864 34.9375 22.4079 34.9692C22.3768 34.9692 22.3456 34.9692 22.3456 34.9692ZM22.3456 41.3243C21.0696 41.3243 20.0426 40.2809 20.0115 38.9846C20.0115 37.6883 21.0385 36.6449 22.3145 36.6133C23.5905 36.6133 24.6176 37.6567 24.6487 38.953C24.6487 38.953 24.6487 38.953 24.6487 38.9846C24.6798 40.2493 23.6839 41.2927 22.439 41.3243C22.4079 41.3243 22.3768 41.3243 22.3456 41.3243Z" fill="#28282D"/>
<path d="M38.0625 36.5184H36.8799V35.1272H38.0625V34.5897C38.0625 32.7559 39.0584 32.0603 40.2411 32.0603C40.9258 32.0603 41.5793 32.25 42.1707 32.5662L41.6727 33.8309C41.3615 33.6728 41.0191 33.5464 40.6768 33.5464C40.1788 33.5464 39.7743 33.7993 39.7743 34.7478V35.0956H41.8906V36.4868H39.7743V42.8103H38.0625V36.5184Z" fill="#28282D"/>
<path d="M55.1487 40.3441V36.5184H54.0283V35.0956H55.1487V33.6096L56.8604 33.2618V35.1272H59.1324V36.55H56.8604V40.4074C56.8604 41.2294 57.2339 41.514 57.6696 41.514C58.0742 41.4824 58.4477 41.3559 58.7589 41.1346L59.2568 42.4309C58.7278 42.8103 58.0742 43 57.4206 43C55.8957 43 55.1487 42.1463 55.1487 40.3441Z" fill="#28282D"/>
<path d="M70.5854 35.1272H72.2349L73.5732 39.3956C73.6977 39.8699 73.8222 40.3441 73.8533 40.85C73.9155 40.3758 73.9778 39.9015 74.0711 39.4272L75.1915 35.1272H76.8721L77.9925 39.4272C78.0859 39.9015 78.1793 40.3758 78.2104 40.85C78.2726 40.3441 78.366 39.8699 78.4905 39.3956L79.8287 35.1272H81.4782L78.9884 42.8735H77.4634L76.2808 38.5735C76.1563 38.0993 76.0941 37.625 76.0318 37.1508C75.9696 37.625 75.8762 38.0993 75.7828 38.5735L74.6002 42.8735H73.0752L70.5854 35.1272Z" fill="#28282D"/>
<path d="M98.9376 35.1272V36.1074C98.3152 35.3802 97.3815 34.9375 96.4167 34.9691C94.3315 34.9691 92.8999 36.7714 92.8999 38.9846C92.8999 41.2294 94.3315 43 96.4167 43C97.3815 43.0316 98.3152 42.6206 98.9376 41.8618V42.8419H100.649V35.1272H98.9376ZM96.8213 41.3243C95.5142 41.3243 94.6116 40.3441 94.6116 38.9846C94.6116 37.625 95.5453 36.6133 96.8213 36.6133C98.0351 36.6133 98.9376 37.625 98.9376 38.9846C98.9376 40.3441 98.0351 41.3243 96.8213 41.3243Z" fill="#28282D"/>
<path d="M113.254 35.1272H114.966V36.6449C115.246 35.8544 116.086 34.9691 117.704 34.9691V36.8662C116.024 36.8662 114.966 37.6883 114.966 39.7118V42.8736H113.254V35.1272Z" fill="#28282D"/>
<path d="M137 38.9213C137 36.7397 135.382 34.9691 133.359 34.9691C131.211 34.9691 129.438 36.7397 129.438 38.953C129.438 38.9846 129.438 38.9846 129.438 39.0162C129.438 41.5456 131.367 43.0316 133.546 43.0316C134.573 43.0316 135.569 42.7155 136.44 42.1147L135.755 40.85C135.102 41.2927 134.355 41.514 133.577 41.514C132.425 41.514 131.46 40.8816 131.211 39.6486H136.969C137 39.3956 137 39.1427 137 38.9213ZM131.18 38.3206C131.336 37.2772 132.207 36.5184 133.266 36.4868C134.324 36.4868 135.226 37.2772 135.351 38.3206H131.18Z" fill="#28282D"/>
<path d="M40.7392 19.5081C37.4714 23.0493 31.9628 23.239 28.4771 19.8875C24.9914 16.5361 24.8047 10.9714 28.1036 7.43018C31.2781 4.01547 36.5066 3.6993 40.0545 6.76621L43.1668 3.31988C40.8637 1.2015 37.6893 3.05176e-05 34.1724 3.05176e-05C26.2363 3.05176e-05 20.6343 6.00738 20.6343 13.4059C20.6343 20.9309 26.2674 26.9383 34.1724 26.9383C38.0938 26.9383 41.4239 25.4839 43.8826 23.0809L40.7392 19.5081Z" fill="#28282D"/>
</svg>
